<?xml version="1.0" standalone="no"?>
<!DOCTYPE svg PUBLIC "-//W3C//DTD SVG 20010904//EN"
 "http://www.w3.org/TR/2001/REC-SVG-20010904/DTD/svg10.dtd">
<svg version="1.0" xmlns="http://www.w3.org/2000/svg"
 width="700.000000pt" height="700.000000pt" viewBox="0 0 700.000000 700.000000"
 preserveAspectRatio="xMidYMid meet">
<metadata>
Created by potrace 1.11, written by Peter Selinger 2001-2013
</metadata>
<g transform="translate(0.000000,700.000000) scale(0.100000,-0.100000)"
fill="#000000" stroke="none">
<path d="M5280 6482 c-7 -3 -10 -218 -10 -661 l0 -657 78 -1 77 -2 0 654 c0
359 -4 657 -8 662 -8 8 -116 12 -137 5z"/>
<path d="M6827 6478 c-11 -7 -14 -168 -4 -185 5 -7 83 -9 142 -4 6 1 10 40 9
98 l0 97 -68 0 c-37 1 -73 -2 -79 -6z"/>
<path d="M2874 6125 c-84 -19 -164 -75 -202 -141 -9 -15 -11 -5 -12 54 0 50
-4 72 -12 73 -15 1 -129 1 -141 0 -4 -1 -7 -214 -7 -475 l1 -474 78 1 79 0 1
300 c1 329 8 378 59 440 41 49 44 51 92 73 89 41 200 26 249 -33 51 -62 55
-91 56 -439 1 -176 5 -325 8 -331 4 -7 36 -11 79 -10 l72 2 1 305 c1 338 6
370 66 443 45 55 101 80 184 83 81 3 127 -17 162 -71 39 -60 44 -107 46 -440
l2 -320 78 -2 77 -1 0 327 c-1 347 -7 407 -51 493 -29 57 -77 104 -132 128
-91 40 -238 28 -320 -26 -45 -29 -115 -102 -123 -126 -8 -27 -20 -22 -35 14
-20 48 -76 106 -130 133 -56 29 -151 37 -225 20z"/>
<path d="M4414 6124 c-70 -11 -121 -25 -176 -46 -27 -10 -28 -13 -28 -79 0
-38 2 -69 5 -69 3 0 23 9 44 20 21 10 49 21 62 24 50 10 71 15 90 21 32 11
172 8 215 -4 90 -24 151 -95 162 -186 l4 -42 -133 0 c-107 0 -230 -8 -269 -18
-100 -25 -174 -80 -214 -158 -26 -50 -29 -68 -30 -145 0 -103 19 -155 80 -216
61 -61 113 -80 226 -83 136 -3 203 20 281 98 l57 57 0 -68 0 -68 78 2 77 1 1
300 c0 306 -7 389 -40 470 -37 88 -122 157 -224 185 -63 16 -186 18 -268 4z
m376 -531 c0 -99 -35 -185 -100 -250 -113 -114 -330 -91 -379 40 -28 74 -1
173 57 209 53 33 122 44 280 47 l142 2 0 -48z"/>
<path d="M5985 6129 c-22 -4 -54 -10 -70 -13 -17 -3 -58 -14 -90 -24 l-60 -18
-1 -72 c-1 -40 0 -72 3 -72 2 0 17 7 33 15 59 31 184 58 265 57 164 -1 260
-71 270 -197 l4 -43 -127 1 c-70 0 -158 -4 -197 -8 -38 -5 -73 -8 -76 -7 -3 0
-39 -16 -80 -36 -123 -61 -169 -143 -164 -292 5 -172 128 -280 314 -280 129 1
216 35 285 111 l46 51 0 -70 0 -70 78 2 77 1 -1 295 c0 382 -5 418 -66 519
-38 64 -100 110 -181 135 -62 19 -197 27 -262 15z m351 -558 c-17 -192 -124
-303 -291 -300 -60 1 -102 15 -142 49 -79 68 -68 224 19 275 52 31 132 43 282
44 l138 1 -6 -69z"/>
<path d="M6819 6090 c-1 -29 -1 -912 0 -922 1 -4 36 -6 78 -5 l77 2 1 463 c0
255 -3 469 -7 475 -3 6 -38 11 -77 11 -69 1 -71 0 -72 -24z"/>
<path d="M898 4905 c-2 -2 -41 -6 -88 -10 -85 -7 -95 -8 -205 -19 -58 -7 -314
-51 -345 -60 -8 -2 -18 -5 -22 -5 -4 -1 -15 -27 -25 -58 -24 -82 -24 -82 -25
-144 -1 -74 32 -139 71 -136 26 2 26 2 27 -78 l1 -80 -46 -5 -46 -5 0 -1097
c0 -1091 0 -1098 20 -1100 11 -1 32 -1 46 0 27 1 27 0 27 -79 0 -43 -3 -79 -6
-80 -4 0 -17 -2 -30 -3 -31 -4 -38 -13 -55 -71 -18 -63 -14 -108 18 -212 9
-29 19 -53 23 -54 4 0 14 -2 22 -4 43 -11 172 -35 215 -41 28 -3 59 -8 70 -10
23 -5 62 -10 155 -20 36 -3 79 -8 95 -10 51 -7 615 -6 710 0 50 4 119 11 155
17 36 6 83 13 105 15 22 3 113 17 202 30 89 13 165 24 168 24 3 0 18 26 33 58
38 80 37 170 -2 236 -15 25 -33 46 -39 45 -45 -5 -47 -2 -47 80 l0 78 28 1
c15 0 39 0 54 1 l27 1 0 328 c-1 180 0 348 0 375 l1 47 41 0 c23 0 38 -4 34
-9 -6 -11 23 -29 57 -35 13 -2 35 3 50 10 21 11 28 24 34 59 l6 45 208 0 207
0 -1 -32 c-1 -30 2 -33 33 -36 19 -2 41 -12 50 -22 9 -10 25 -21 36 -24 24 -7
89 23 91 42 1 6 2 26 3 42 l1 30 1829 0 1829 0 -2 -35 c-3 -34 -2 -35 33 -35
25 0 40 -6 48 -19 16 -25 61 -32 95 -15 30 16 36 28 43 104 4 30 10 82 15 114
5 33 9 121 8 197 -1 119 -5 168 -23 284 -2 11 -4 28 -4 37 -2 40 -111 59 -136
24 -7 -9 -26 -16 -43 -16 -32 0 -40 -10 -37 -52 l2 -28 -1825 3 -1825 2 -3 25
c-10 70 -17 77 -81 87 -23 3 -37 -1 -52 -16 -12 -12 -34 -21 -51 -21 -17 0
-31 -6 -31 -12 -1 -7 -3 -20 -4 -28 -1 -8 -3 -21 -4 -28 -1 -16 -406 -13 -406
3 -1 6 -4 27 -8 47 -6 30 -14 39 -41 48 -42 14 -113 0 -101 -20 3 -4 -14 -10
-38 -11 l-42 -4 2 373 2 372 -55 0 -55 0 3 83 c3 77 4 82 26 83 12 1 26 2 30
3 5 0 19 22 32 49 33 65 35 133 5 207 -29 70 -31 72 -75 80 -19 3 -46 7 -60
10 -14 3 -47 7 -75 11 -27 3 -57 8 -66 9 -9 2 -40 6 -70 10 -30 3 -67 9 -84
12 -85 15 -223 30 -248 27 -15 -2 -26 0 -23 4 4 6 -569 13 -576 7z"/>
</g>
</svg>
